<mxfile host="app.diagrams.net" modified="2023-10-31T02:31:45.933Z" agent="Mozilla/5.0 (Macintosh; Intel Mac OS X 10_15_7) AppleWebKit/537.36 (KHTML, like Gecko) Chrome/117.0.0.0 Safari/537.36" version="22.0.8" etag="mlopIu5P3SGXtd_Mh4u_" type="github">
  <diagram name="第 1 页" id="kW7qABlg0tI8KdYtYpSQ">
    <mxGraphModel>
      <root>
        <mxCell id="0" />
        <mxCell id="1" parent="0" />
      </root>
    </mxGraphModel>
  </diagram>
</mxfile>
